<svg width="100" height="100" viewBox="0 0 100 100" xmlns="http://www.w3.org/2000/svg" >
    <path id="studio-logo" d="M 65.070775,1.3752212e-7 C 51.466667,-2.0670922e-6 39.590156,7.9372582 33.836165,19.396031 33.0169,21.027556 32.53187,20.889084 31.927327,19.174516 30.765005,15.878034 27.917365,13.335757 24.32295,12.667499 18.893271,11.66273 13.676957,15.249333 12.67123,20.67892 L 0.1699437,88.176414 C -1.1050051,95.072057 4.9283039,101.10446 11.823618,99.828325 L 79.320013,87.328787 c 5.429497,-1.005743 9.016043,-6.222142 8.011293,-11.651906 -0.72474,-3.659857 -3.388888,-6.512634 -6.785459,-7.590487 -1.732846,-0.549891 -1.864623,-0.973659 -0.22579,-1.778132 C 91.931352,60.608514 99.998584,48.645016 99.998584,34.928391 99.998594,15.756545 84.242313,1.0193678e-6 65.070775,1.3752212e-7 Z m 0,19.99925786247788 c 8.36334,10e-7 14.928888,6.565659 14.928888,14.929133 0,8.363475 -6.565548,14.929131 -14.928888,14.929131 -8.363337,0 -14.928889,-6.565652 -14.928889,-14.929131 0,-8.363475 6.565552,-14.929134 14.928889,-14.929133 z M 30.587513,40.402686 c 2.371446,14.822601 14.195005,26.643427 29.018702,29.010775 2.403012,0.383762 2.445453,0.775461 0.05106,1.218906 L 26.82059,76.71373 a 3.0312573,3.0313067 0 0 1 -3.532574,-3.532593 l 6.079416,-32.829381 c 0.443408,-2.394445 0.835634,-2.352012 1.220078,0.05095 z" />
</svg>